<svg xmlns="http://www.w3.org/2000/svg" viewBox="0 0 64 64" role="img" aria-label="StrayRescue">
  <defs>
    <linearGradient id="bg" x1="9" x2="55" y1="7" y2="59" gradientUnits="userSpaceOnUse">
      <stop stop-color="#fb923c"/>
      <stop offset="1" stop-color="#f97316"/>
    </linearGradient>
    <filter id="shadow" x="4" y="4" width="56" height="56" color-interpolation-filters="sRGB" filterUnits="userSpaceOnUse">
      <feDropShadow dx="0" dy="3" stdDeviation="3" flood-color="#9a3412" flood-opacity=".25"/>
    </filter>
  </defs>
  <rect width="64" height="64" rx="18" fill="#fff7ed"/>
  <circle cx="32" cy="32" r="25" fill="url(#bg)" filter="url(#shadow)"/>
  <path fill="#fff" d="M31.5 47.1c-7.9-5.2-15.4-10.8-15.4-19 0-4.8 3.5-8.5 8.1-8.5 3 0 5.5 1.5 7.3 4 1.8-2.5 4.3-4 7.3-4 4.6 0 8.1 3.7 8.1 8.5 0 8.2-7.5 13.8-15.4 19Z"/>
  <circle cx="22.8" cy="18.5" r="3.8" fill="#fff7ed"/>
  <circle cx="31.4" cy="15.2" r="3.6" fill="#fff7ed"/>
  <circle cx="40" cy="18.5" r="3.8" fill="#fff7ed"/>
  <ellipse cx="31.5" cy="28.1" fill="#fff7ed" rx="8.9" ry="7.2"/>
</svg>
